<?xml version="1.0" encoding="UTF-8" standalone="no"?>
<!-- Created with Inkscape (http://www.inkscape.org/) -->

<svg
   xmlns:dc="http://purl.org/dc/elements/1.1/"
   xmlns:cc="http://creativecommons.org/ns#"
   xmlns:rdf="http://www.w3.org/1999/02/22-rdf-syntax-ns#"
   xmlns:svg="http://www.w3.org/2000/svg"
   xmlns="http://www.w3.org/2000/svg"
   xmlns:sodipodi="http://sodipodi.sourceforge.net/DTD/sodipodi-0.dtd"
   xmlns:inkscape="http://www.inkscape.org/namespaces/inkscape"
   width="210mm"
   height="297mm"
   viewBox="0 0 210 297"
   version="1.1"
   id="svg8"
   inkscape:export-filename="/home/specialjcg/site web/maquette/logo3.png"
   inkscape:export-xdpi="96"
   inkscape:export-ydpi="96"
   inkscape:version="0.92.1 r15371"
   sodipodi:docname="dessin.svg">
  <defs
     id="defs2">
    <marker
       inkscape:stockid="Arrow1Lstart"
       orient="auto"
       refY="0.0"
       refX="0.0"
       id="marker4836"
       style="overflow:visible"
       inkscape:isstock="true">
      <path
         id="path4834"
         d="M 0.0,0.0 L 5.0,-5.0 L -12.5,0.0 L 5.0,5.0 L 0.0,0.0 z "
         style="fill-rule:evenodd;stroke:#000000;stroke-width:1pt;stroke-opacity:1;fill:#007400;fill-opacity:0.76078431"
         transform="scale(0.8) translate(12.5,0)" />
    </marker>
    <marker
       inkscape:stockid="Arrow1Lstart"
       orient="auto"
       refY="0.0"
       refX="0.0"
       id="marker4802"
       style="overflow:visible"
       inkscape:isstock="true">
      <path
         id="path4800"
         d="M 0.0,0.0 L 5.0,-5.0 L -12.5,0.0 L 5.0,5.0 L 0.0,0.0 z "
         style="fill-rule:evenodd;stroke:#000000;stroke-width:1pt;stroke-opacity:1;fill:#007400;fill-opacity:0.76078431"
         transform="scale(0.8) translate(12.5,0)" />
    </marker>
    <marker
       inkscape:stockid="Arrow1Lstart"
       orient="auto"
       refY="0.0"
       refX="0.0"
       id="Arrow1Lstart"
       style="overflow:visible"
       inkscape:isstock="true">
      <path
         id="path4524"
         d="M 0.0,0.0 L 5.0,-5.0 L -12.5,0.0 L 5.0,5.0 L 0.0,0.0 z "
         style="fill-rule:evenodd;stroke:#000000;stroke-width:1pt;stroke-opacity:1;fill:#007400;fill-opacity:0.76078431"
         transform="scale(0.8) translate(12.5,0)" />
    </marker>
    <filter
       inkscape:label="Enamel Jewelry"
       inkscape:menu="Materials"
       inkscape:menu-tooltip="Slightly cracked enameled texture"
       style="color-interpolation-filters:sRGB;"
       id="filter6385">
      <feGaussianBlur
         result="result0"
         in="SourceGraphic"
         stdDeviation="2"
         id="feGaussianBlur6357" />
      <feTurbulence
         baseFrequency="0.052"
         seed="488"
         numOctaves="8"
         result="result1"
         type="fractalNoise"
         id="feTurbulence6359" />
      <feDisplacementMap
         result="result5"
         xChannelSelector="R"
         scale="0"
         in2="result1"
         id="feDisplacementMap6361" />
      <feComposite
         result="result2"
         operator="in"
         in2="result5"
         in="result0"
         id="feComposite6363" />
      <feSpecularLighting
         surfaceScale="3"
         result="result4"
         specularConstant="3.94"
         specularExponent="40"
         lighting-color="rgb(226,252,180)"
         in="result2"
         id="feSpecularLighting6367">
        <feDistantLight
           elevation="80"
           azimuth="265"
           id="feDistantLight6365" />
      </feSpecularLighting>
      <feComposite
         k1="5"
         k3="0.5"
         in2="result2"
         in="result4"
         operator="arithmetic"
         result="result91"
         id="feComposite6369" />
      <feBlend
         result="fbSourceGraphic"
         mode="darken"
         in2="result91"
         id="feBlend6371" />
      <feGaussianBlur
         stdDeviation="5"
         in="fbSourceGraphic"
         result="result0"
         id="feGaussianBlur6373" />
      <feSpecularLighting
         in="result0"
         result="result1"
         lighting-color="rgb(250,224,108)"
         surfaceScale="4"
         specularConstant="1"
         specularExponent="20"
         id="feSpecularLighting6377">
        <feDistantLight
           azimuth="225"
           elevation="50"
           id="feDistantLight6375" />
      </feSpecularLighting>
      <feComposite
         in2="fbSourceGraphic"
         in="result1"
         result="result2"
         operator="in"
         id="feComposite6379" />
      <feComposite
         in="fbSourceGraphic"
         result="result4"
         operator="arithmetic"
         k2="0.5"
         k3="2"
         in2="result2"
         id="feComposite6381" />
      <feBlend
         mode="multiply"
         in2="result4"
         id="feBlend6383" />
    </filter>
    <filter
       inkscape:label="Enamel Jewelry"
       inkscape:menu="Materials"
       inkscape:menu-tooltip="Slightly cracked enameled texture"
       style="color-interpolation-filters:sRGB;"
       id="filter6415">
      <feGaussianBlur
         result="result0"
         in="SourceGraphic"
         stdDeviation="2"
         id="feGaussianBlur6387" />
      <feTurbulence
         baseFrequency="0.052"
         seed="488"
         numOctaves="8"
         result="result1"
         type="fractalNoise"
         id="feTurbulence6389" />
      <feDisplacementMap
         result="result5"
         xChannelSelector="R"
         scale="0"
         in2="result1"
         id="feDisplacementMap6391" />
      <feComposite
         result="result2"
         operator="in"
         in2="result5"
         in="result0"
         id="feComposite6393" />
      <feSpecularLighting
         surfaceScale="3"
         result="result4"
         specularConstant="3.94"
         specularExponent="40"
         lighting-color="rgb(226,252,180)"
         in="result2"
         id="feSpecularLighting6397">
        <feDistantLight
           elevation="80"
           azimuth="265"
           id="feDistantLight6395" />
      </feSpecularLighting>
      <feComposite
         k1="5"
         k3="0.5"
         in2="result2"
         in="result4"
         operator="arithmetic"
         result="result91"
         id="feComposite6399" />
      <feBlend
         result="fbSourceGraphic"
         mode="darken"
         in2="result91"
         id="feBlend6401" />
      <feGaussianBlur
         stdDeviation="5"
         in="fbSourceGraphic"
         result="result0"
         id="feGaussianBlur6403" />
      <feSpecularLighting
         in="result0"
         result="result1"
         lighting-color="rgb(250,224,108)"
         surfaceScale="4"
         specularConstant="1"
         specularExponent="20"
         id="feSpecularLighting6407">
        <feDistantLight
           azimuth="225"
           elevation="50"
           id="feDistantLight6405" />
      </feSpecularLighting>
      <feComposite
         in2="fbSourceGraphic"
         in="result1"
         result="result2"
         operator="in"
         id="feComposite6409" />
      <feComposite
         in="fbSourceGraphic"
         result="result4"
         operator="arithmetic"
         k2="0.5"
         k3="2"
         in2="result2"
         id="feComposite6411" />
      <feBlend
         mode="multiply"
         in2="result4"
         id="feBlend6413" />
    </filter>
  </defs>
  <sodipodi:namedview
     id="base"
     pagecolor="#ffffff"
     bordercolor="#666666"
     borderopacity="1.0"
     inkscape:pageopacity="0.0"
     inkscape:pageshadow="2"
     inkscape:zoom="1.0066253"
     inkscape:cx="440.40525"
     inkscape:cy="777.11967"
     inkscape:document-units="mm"
     inkscape:current-layer="layer1"
     showgrid="true"
     inkscape:window-width="1920"
     inkscape:window-height="971"
     inkscape:window-x="0"
     inkscape:window-y="31"
     inkscape:window-maximized="1">
    <inkscape:grid
       type="xygrid"
       id="grid4504" />
  </sodipodi:namedview>
  <metadata
     id="metadata5">
    <rdf:RDF>
      <cc:Work
         rdf:about="">
        <dc:format>image/svg+xml</dc:format>
        <dc:type
           rdf:resource="http://purl.org/dc/dcmitype/StillImage" />
        <dc:title />
      </cc:Work>
    </rdf:RDF>
  </metadata>
  <g
     inkscape:label="Calque 1"
     inkscape:groupmode="layer"
     id="layer1">
    <path
       style="opacity:0.75899999;fill:#d8fc5c;stroke:#ffbf36;stroke-width:0.99999994;stroke-miterlimit:4;stroke-dasharray:0, 11.00000001000000083;stroke-dashoffset:0;stroke-opacity:1;filter:url(#filter6415)"
       d="M 245.19336 272.40039 L 245.19336 272.51953 L 245 272.51953 L 245 395.80469 L 244.99414 399.54492 C 244.91307 451.33398 244.89958 482.2703 245 502.03516 L 245 502.51953 C 244.45805 514.12533 244.75278 525.44651 245.80469 536.4043 C 245.83424 536.73436 245.85733 537.16714 245.88867 537.47656 C 248.36615 561.93318 254.51585 584.61275 264.10156 604.98242 C 264.26396 605.32963 264.42955 605.67404 264.59375 606.01953 C 264.96054 606.78659 265.33238 607.55016 265.70898 608.31055 C 271.01361 619.08594 277.19748 629.00245 284.13281 637.89648 C 286.33325 640.75293 288.62039 643.53953 290.99609 646.25391 C 294.57316 650.34091 298.62778 654.23043 302.94531 657.78125 C 314.68592 667.69428 327.34041 673.92115 340.24414 676.42188 C 340.64572 676.50186 341.04748 676.57776 341.44922 676.65039 C 341.91456 676.73212 342.37981 676.81271 342.8457 676.88477 C 343.80433 677.0377 344.7637 677.16809 345.72266 677.2793 C 345.72987 677.2801 345.73693 677.2824 345.74414 677.2832 C 357.53304 678.6465 369.32659 676.86169 380.71094 672.03711 C 380.80017 671.99964 380.88932 671.96167 380.97852 671.92383 C 381.83594 671.55666 382.69044 671.17116 383.54297 670.76953 C 383.91744 670.59469 384.29245 670.42368 384.66602 670.24219 C 385.05146 670.05327 385.434 669.85027 385.81836 669.6543 C 392.12671 666.46514 398.29969 662.34545 404.24609 657.24414 C 410.8066 651.6161 416.8906 644.98588 422.44727 637.52344 C 422.57117 637.35726 422.69107 637.18463 422.81445 637.01758 C 425.93291 632.79057 428.88083 628.29862 431.65039 623.56836 C 431.75192 623.39482 431.85598 623.22496 431.95703 623.05078 C 432.58101 621.97602 433.19148 620.88386 433.79688 619.78516 C 433.91842 619.56444 434.04131 619.34666 434.16211 619.125 C 434.76502 618.01923 435.35549 616.89855 435.93945 615.76953 C 436.05177 615.55237 436.16573 615.33713 436.27734 615.11914 C 436.8293 614.04106 437.37171 612.95195 437.90625 611.85352 C 438.06892 611.51942 438.23153 611.18549 438.39258 610.84961 C 438.88123 609.82974 439.3604 608.80029 439.83398 607.76367 C 440.02646 607.34292 440.21824 606.92138 440.4082 606.49805 C 440.83852 605.53757 441.26429 604.57182 441.68164 603.59766 C 441.93188 603.0148 442.17636 602.42721 442.42188 601.83984 C 442.75975 601.0295 443.09882 600.2197 443.42773 599.40039 C 443.8011 598.47318 444.16377 597.53717 444.52539 596.59961 C 444.71414 596.10849 444.90624 595.62108 445.0918 595.12695 C 451.5493 577.99747 456.04128 559.22903 458.20117 539.98828 C 459.36561 530.07388 459.98756 519.92298 460 509.62695 L 459.61719 509.625 C 459.6046 508.99078 459.602 508.35653 459.58398 507.72266 C 459.51356 505.24512 459.40418 502.87666 459.26562 500.57617 A 67.435481 89.913969 0 0 0 459.01172 496.95508 C 458.91806 495.78377 458.81185 494.63394 458.69727 493.50391 A 67.435481 89.913969 0 0 0 458.18359 489.06055 C 456.59695 477.14367 453.65265 467.35446 448.83203 457.46094 A 67.435481 89.913969 0 0 0 448.39453 456.5918 C 448.09471 455.98968 447.80024 455.38911 447.48633 454.78516 C 446.61347 453.1058 445.77139 451.58847 444.93164 450.13477 A 67.435481 89.913969 0 0 0 444.70703 449.74414 C 442.14377 445.35551 439.56676 441.78391 436.26562 438.05664 A 67.435481 89.913969 0 0 0 433.16992 434.72461 C 432.84845 434.39241 432.55256 434.07231 432.2168 433.73242 C 432.01012 433.52321 431.79928 433.33045 431.5918 433.125 A 67.435481 89.913969 0 0 0 429.29688 430.94531 C 420.30538 422.75708 410.5471 417.98843 399.69336 416.5 A 67.435481 89.913969 0 0 0 394.86914 416.04492 A 67.435481 89.913969 0 0 0 394.83984 416.04297 C 394.83855 416.04291 394.83723 416.04303 394.83594 416.04297 A 67.435481 89.913969 0 0 0 391.96875 415.85156 A 67.435481 89.913969 0 0 0 386.40039 416.20703 C 383.96222 416.38747 381.7835 416.65353 380.5918 416.9707 C 378.18814 417.61042 376.9043 417.69867 376.9043 417.2207 C 376.9043 417.03843 377.27527 416.19675 377.83398 415.05078 C 377.91624 414.87949 377.9992 414.71085 378.08203 414.54102 C 378.74276 413.21445 379.6191 411.54264 380.5918 409.77148 C 380.78254 409.42416 380.99227 409.07295 381.19727 408.72266 C 381.40735 408.36599 381.6189 408.01468 381.83203 407.66602 C 384.9638 402.61225 389.39167 397.42857 393.61328 393.70898 C 395.69645 391.95576 397.8598 390.4428 400.08594 389.18945 C 407.45472 385.78027 410.6958 384.99427 417.29492 385.01367 C 420.61742 385.02344 425.44757 385.52061 429.01953 386.11133 C 431.94867 386.8414 434.9413 387.85359 437.99023 389.14062 C 438.34096 389.29838 438.61566 389.41466 438.98242 389.58203 C 439.43361 389.78793 439.75867 389.92549 440.17578 390.11133 C 441.41856 390.68479 442.6695 391.3008 443.92969 391.96484 C 444.54926 392.3265 445.17227 392.70244 445.78516 393.10547 C 446.20882 393.4186 446.63163 393.73139 447.04688 394.04688 C 450.64648 396.95525 456.01348 401.69538 459.44727 405.11133 C 460.40979 406.1012 461.35043 407.10355 462.26172 408.12109 C 464.96183 411.20914 467.98286 415.15505 470.625 418.91992 C 473.33483 423.03521 475.61152 427.21273 477.52539 431.41016 C 477.79936 432.25302 478.38285 433.69393 479.06641 435.17383 C 479.37542 435.84284 479.67445 436.56377 479.9707 437.30078 C 480.82909 439.57867 481.58953 441.85487 482.25977 444.125 C 483.67689 449.13365 484.87536 455.02196 485.78906 461.62305 C 486.59773 467.46531 485 497.51953 485 502.51953 C 484.02884 508.55676 483.85869 559.28844 484.29883 623.51758 L 485 725.98633 L 485 734.33008 L 540 734.33008 L 540 653.97852 L 540.04883 623.09961 C 540.14499 562.23314 540.18931 529.48778 540.0918 509.87695 C 540.40872 501.05223 540.25585 492.39268 539.64062 483.94141 C 539.44486 480.30566 539.18335 478.02073 538.83594 474.99609 C 538.78249 474.53075 538.71446 474.06999 538.6582 473.60547 C 538.61949 473.27847 538.57328 472.95521 538.5332 472.62891 C 538.3664 471.29967 538.20136 469.97037 538.01172 468.64844 C 535.54089 451.11297 531.09825 434.62441 525.01562 419.53516 C 524.93328 419.32948 524.85444 419.1212 524.77148 418.91602 C 524.46757 418.16949 524.14982 417.43487 523.83789 416.69531 C 519.87066 407.22462 515.25667 398.2843 510.01953 390.07227 C 504.84005 381.95063 499.31997 374.74597 493.54492 368.44336 C 493.05602 367.90447 492.56521 367.36745 492.07031 366.83789 C 491.95226 366.71322 491.83506 366.58875 491.7168 366.46484 C 491.00778 365.71151 490.29915 364.95668 489.57812 364.22266 C 476.82455 351.23929 462.71766 342.95441 448.22266 339.38086 C 447.64766 339.23519 447.07238 339.09159 446.49609 338.96094 C 446.28727 338.91496 446.0781 338.87409 445.86914 338.83008 C 430.5516 335.50492 414.80864 337.46768 399.51758 345.12109 C 378.32387 355.72888 360.34546 376.02973 347.32031 402.7207 C 337.88252 421.97522 331.14776 444.33653 327.68359 468.29688 C 327.54404 469.23864 327.40935 470.18297 327.2793 471.13086 C 327.25012 471.35008 327.22199 471.56959 327.19336 471.78906 C 326.99717 473.24568 326.80248 474.70327 326.62891 476.17383 C 326.56175 476.31872 326.50706 476.84599 326.4707 477.61719 C 326.3166 478.98521 326.15975 480.351 326.02539 481.73047 C 323.72902 505.30802 323.95283 516.62575 326.99414 530.56055 C 329.45404 541.83139 333.57119 552.22367 338.92578 561.24805 A 67.435481 89.913969 0 0 0 339.49219 562.18359 C 340.65889 564.09813 341.8747 565.95658 343.15039 567.73828 A 67.435481 89.913969 0 0 0 344.25391 569.23047 C 345.48235 570.87032 346.75036 572.45559 348.06641 573.9668 A 67.435481 89.913969 0 0 0 349.13867 575.1582 C 350.63626 576.80907 352.18124 578.3813 353.77734 579.85742 A 67.435481 89.913969 0 0 0 354.06055 580.11133 C 361.49147 586.91101 369.9222 591.76785 378.89062 594.0918 C 387.87687 596.42038 399.33492 596.17805 407.125 593.49414 C 408.66193 592.96463 409.91797 592.80452 409.91797 593.13867 C 409.91797 594.43797 404.36931 605.55613 401.94141 609.12109 C 401.10673 610.34668 400.39771 611.44185 399.92969 612.20703 C 399.0641 613.38362 398.17872 614.50297 397.27148 615.56445 C 396.41034 616.47287 395.44601 617.48196 394.28125 618.6543 C 392.59851 620.34799 390.9016 621.83044 389.17188 623.13477 C 382.65682 627.81672 375.3171 630.25863 367.35742 630.28125 C 364.4408 630.28953 361.55462 630.03334 358.71094 629.53711 C 358.4523 629.48594 358.19305 629.43413 357.93164 629.37695 C 357.57065 629.3016 357.20674 629.21096 356.84375 629.12695 C 353.71986 628.35649 350.31098 627.16227 345.95312 625.36523 C 344.7914 624.88618 343.69791 624.36152 342.61914 623.80273 C 340.56687 622.66338 338.55894 621.37909 336.60547 619.94922 C 335.66369 619.21175 334.74535 618.46804 333.84766 617.71875 C 331.55077 615.75044 329.02105 613.36487 325.97266 610.30664 C 324.29504 608.62362 322.75823 606.99002 321.32227 605.36133 C 321.233 605.25638 321.14134 605.15196 321.05273 605.04688 C 315.24052 598.11993 310.52737 590.56096 306.9082 582.35938 C 306.82608 582.17195 306.74475 581.98436 306.66406 581.79688 C 306.49166 581.3993 306.3216 581.00018 306.1543 580.59961 C 305.02651 577.8765 304.04686 575.15004 303.19727 572.43164 C 302.16862 568.74732 301.07063 564.1973 300.20898 559.86523 C 298.88019 553.18449 298.63477 549.60914 298.60938 536.52148 C 298.59645 529.87242 298.84474 521.26454 299.19531 514.92383 C 299.61523 509.97005 300 505.69638 300 502.51953 L 300 496.57031 C 300.29044 480.39652 300.33344 449.0561 300.20898 385.8457 L 300.00391 282.11914 C 300.13121 276.13034 300.29356 273.33573 300.51172 273.25781 C 300.99466 273.08533 301.23223 272.82135 301.03906 272.67188 C 301.00907 272.64866 300.58934 272.62897 300 272.61133 L 300 272.51953 L 299.98438 272.51953 L 299.98438 272.40039 L 272.58984 272.40039 L 245.19336 272.40039 z "
       transform="scale(0.26458333)"
       id="path4485"
       inkscape:export-filename="/home/specialjcg/site web/maquette/logo4.png"
       inkscape:export-xdpi="96"
       inkscape:export-ydpi="96" />
    <path
       style="opacity:0.75899999;fill:#ffbf36;fill-opacity:1;stroke:#ffbf36;stroke-width:0;stroke-miterlimit:4;stroke-dasharray:none;stroke-dashoffset:0;stroke-opacity:1;filter:url(#filter6385)"
       d="m 485.45722,722.45195 c -0.82884,-24.91053 -0.65666,-210.5263 0.21608,-232.92977 1.03361,-26.53329 0.27539,-35.14583 -4.26592,-48.45598 -9.42616,-27.62715 -31.66106,-50.74135 -53.09061,-55.19011 -8.67188,-1.80027 -19.59321,-0.85445 -26.35235,2.2822 -7.00753,3.25191 -15.90764,11.90845 -20.69138,20.1251 -5.57289,9.57211 -5.58457,9.73725 -0.62988,8.90016 7.85031,-1.3263 19.81866,-0.66768 26.58192,1.46281 25.32383,7.97725 44.68021,34.2617 50.23481,68.215 1.97545,12.07524 2.23671,38.69897 0.5157,52.55326 -4.07353,32.79238 -13.15567,61.07236 -27.22817,84.78315 -14.68092,24.73589 -33.62301,41.67953 -55.50419,49.64831 -6.60455,2.40528 -8.55538,2.64389 -21.66274,2.6496 -13.61172,0.006 -14.87994,-0.16374 -23.04126,-3.08259 -12.80587,-4.57994 -22.57659,-11.11557 -34.64423,-23.17353 -26.94122,-26.91959 -45.12491,-68.07414 -49.56197,-112.17197 -0.65912,-6.55068 -1.03514,-56.62098 -1.03514,-137.8368 v -127.549 h 27.319 27.31901 l 0.01,113.49805 c 0.006,73.37176 -0.39332,120.46573 -1.12999,133.20629 -2.6017,44.99545 5.23941,69.51782 29.98743,93.78304 12.2907,12.05093 25.67662,17.71183 40.08482,16.95186 13.9719,-0.73696 24.74785,-7.63114 33.43987,-21.39397 4.32146,-6.84254 8.22587,-15.15418 7.47257,-15.90746 -0.25031,-0.25032 -2.16146,0.14139 -4.24699,0.87046 -6.25788,2.18764 -22.44078,1.62369 -30.11747,-1.04955 -15.30012,-5.32794 -30.58246,-19.77647 -39.48551,-37.3312 -3.82634,-7.54465 -8.0214,-21.03271 -9.74202,-31.32277 -1.96701,-11.76357 -1.57558,-29.91893 1.08554,-50.34919 6.60822,-50.73341 27.41569,-94.62634 55.51564,-117.10908 26.40171,-21.12398 55.06235,-24.469 83.08525,-9.69698 35.72224,18.83065 64.67608,68.59269 71.8817,123.54075 2.04416,15.58823 2.10453,20.55096 1.82181,149.75782 l -0.24836,113.49805 h -26.76033 -26.76031 z"
       id="path6075"
       inkscape:connector-curvature="0"
       transform="scale(0.26458333)"
       inkscape:export-filename="/home/specialjcg/site web/maquette/logo4.png"
       inkscape:export-xdpi="96"
       inkscape:export-ydpi="96" />
  </g>
</svg>
